<?xml version="1.0" encoding="UTF-8"?><svg id="Layer_1" xmlns="http://www.w3.org/2000/svg" viewBox="0 0 512 512"><defs><style>.cls-1{fill:#fff;}</style></defs><path class="cls-1" d="M413.49,350.63H98.51c-3.31,0-6,2.69-6,6s2.69,6,6,6H413.49c3.31,0,6-2.69,6-6s-2.69-6-6-6Z"/><path class="cls-1" d="M258.75,230.28c22.31,0,40.46-18.15,40.46-40.46s-18.15-40.46-40.46-40.46-40.46,18.15-40.46,40.46,18.15,40.46,40.46,40.46Zm0-68.92c15.69,0,28.46,12.77,28.46,28.46s-12.77,28.46-28.46,28.46-28.46-12.77-28.46-28.46,12.77-28.46,28.46-28.46Z"/><path class="cls-1" d="M351.16,214.62c17.99,0,32.63-14.64,32.63-32.63s-14.64-32.63-32.63-32.63-32.63,14.64-32.63,32.63,14.64,32.63,32.63,32.63Zm0-53.25c11.37,0,20.63,9.25,20.63,20.63s-9.25,20.63-20.63,20.63-20.63-9.25-20.63-20.63,9.25-20.63,20.63-20.63Z"/><path class="cls-1" d="M168.9,214.62c17.99,0,32.63-14.64,32.63-32.63s-14.64-32.63-32.63-32.63-32.63,14.64-32.63,32.63,14.64,32.63,32.63,32.63Zm0-53.25c11.37,0,20.63,9.25,20.63,20.63s-9.25,20.63-20.63,20.63-20.63-9.25-20.63-20.63,9.25-20.63,20.63-20.63Z"/><path class="cls-1" d="M118.5,286.13c3.31,0,6-2.69,6-6v-15.32c0-11.53,9.38-20.92,20.92-20.92h47.08c3.31,0,6-2.69,6-6s-2.69-6-6-6h-47.08c-18.15,0-32.92,14.77-32.92,32.92v15.32c0,3.31,2.69,6,6,6Z"/><path class="cls-1" d="M324.53,243.9h47.08c11.53,0,20.92,9.38,20.92,20.92v15.32c0,3.31,2.69,6,6,6s6-2.69,6-6v-15.32c0-18.15-14.77-32.92-32.92-32.92h-47.08c-3.31,0-6,2.69-6,6s2.69,6,6,6Z"/><path class="cls-1" d="M189.53,303.8c0,4.52,3.68,8.2,8.2,8.2h119.33c4.52,0,8.2-3.68,8.2-8.2v-7.37c0-26.53-21.58-48.12-48.12-48.12h-39.51c-26.53,0-48.12,21.58-48.12,48.12v7.37Zm12-7.37c0-19.91,16.2-36.12,36.12-36.12h39.51c19.91,0,36.12,16.2,36.12,36.12v3.57h-111.74v-3.57Z"/></svg>