<?xml version="1.0" encoding="UTF-8"?><svg id="Layer_1" xmlns="http://www.w3.org/2000/svg" viewBox="0 0 512 512"><defs><style>.cls-1{fill:#fff;}</style></defs><path class="cls-1" d="M393.91,205.41h-12.98v-2.15c0-10.95-8.91-19.85-19.85-19.85h-91.18c-5.39,0-10.27,2.16-13.85,5.66-3.58-3.49-8.46-5.66-13.85-5.66h-39.59v-48.73c0-12.01-9.77-21.78-21.78-21.78h-5.25c-12.01,0-21.78,9.77-21.78,21.78v48.73h-2.78c-10.95,0-19.85,8.91-19.85,19.85v2.15h-13.09c-4.56,0-8.27,3.71-8.27,8.27v177.15c0,4.56,3.71,8.27,8.27,8.27H393.91c4.56,0,8.27-3.71,8.27-8.27V213.68c0-4.56-3.71-8.27-8.27-8.27Zm-124.01-10h91.18c4.33,0,7.85,3.52,7.85,7.85v161.82c0,4.33-3.52,7.85-7.85,7.85h-81.5c-6.44,0-12.56,2.16-17.53,6.13V203.26c0-4.33,3.52-7.85,7.85-7.85Zm-79.29-47.98v136.2h-6.4V147.43h6.4Zm-18.4,136.2h-6.4V147.43h6.4v136.2Zm13.82,12l-7.82,13.41-7.82-13.41h15.63Zm-10.44-170.73h5.25c5.39,0,9.78,4.39,9.78,9.78v.75h-24.81v-.75c0-5.39,4.39-9.78,9.78-9.78Zm-32.41,78.36c0-4.33,3.52-7.85,7.85-7.85h2.78v94.22c0,1.53,.58,2.92,1.52,3.98l17.7,30.36c1.08,1.84,3.05,2.98,5.18,2.98s4.11-1.13,5.18-2.98l17.7-30.36c.94-1.06,1.52-2.45,1.52-3.98v-94.22h39.59c4.33,0,7.85,3.52,7.85,7.85v175.8c-4.96-3.97-11.09-6.13-17.53-6.13h-81.5c-4.33,0-7.85-3.52-7.85-7.85V203.26Zm-21.36,14.15h9.36v147.67c0,10.95,8.91,19.85,19.85,19.85h81.5c2.87,0,5.63,.77,8.05,2.17H121.82V217.41Zm268.37,169.69h-118.65c2.43-1.41,5.18-2.17,8.05-2.17h81.5c10.95,0,19.85-8.91,19.85-19.85V217.41h9.25v169.69Z"/><path class="cls-1" d="M275.59,226.63h82.5c2.98,0,5.39-2.69,5.39-6s-2.41-6-5.39-6h-82.5c-2.98,0-5.39,2.69-5.39,6s2.41,6,5.39,6Z"/><path class="cls-1" d="M275.59,251.84h71.15c2.98,0,5.39-2.69,5.39-6s-2.41-6-5.39-6h-71.15c-2.98,0-5.39,2.69-5.39,6s2.41,6,5.39,6Z"/><path class="cls-1" d="M275.59,277.06h82.5c2.98,0,5.39-2.69,5.39-6s-2.41-6-5.39-6h-82.5c-2.98,0-5.39,2.69-5.39,6s2.41,6,5.39,6Z"/><path class="cls-1" d="M275.59,302.28h70.57c2.98,0,5.39-2.69,5.39-6s-2.41-6-5.39-6h-70.57c-2.98,0-5.39,2.69-5.39,6s2.41,6,5.39,6Z"/><path class="cls-1" d="M275.59,327.5h82.5c2.98,0,5.39-2.69,5.39-6s-2.41-6-5.39-6h-82.5c-2.98,0-5.39,2.69-5.39,6s2.41,6,5.39,6Z"/><path class="cls-1" d="M275.59,352.71h71.79c2.98,0,5.39-2.69,5.39-6s-2.41-6-5.39-6h-71.79c-2.98,0-5.39,2.69-5.39,6s2.41,6,5.39,6Z"/></svg>