<?xml version="1.0" encoding="UTF-8"?><svg id="Layer_1" xmlns="http://www.w3.org/2000/svg" viewBox="0 0 512 512"><defs><style>.cls-1{fill:#fff;}</style></defs><path class="cls-1" d="M350.98,342.53l-57.14-57.14c11.46-13.38,18.4-30.73,18.4-49.68,0-42.18-34.32-76.5-76.5-76.5s-76.5,34.32-76.5,76.5,34.32,76.5,76.5,76.5c18.92,0,36.24-6.92,49.61-18.34l57.14,57.14c1.17,1.17,2.71,1.76,4.24,1.76s3.07-.59,4.24-1.76c2.34-2.34,2.34-6.14,0-8.49Zm-179.73-106.82c0-35.56,28.93-64.5,64.5-64.5s64.5,28.93,64.5,64.5-28.93,64.5-64.5,64.5-64.5-28.93-64.5-64.5Z"/></svg>