<?xml version="1.0" encoding="UTF-8"?><svg id="Layer_1" xmlns="http://www.w3.org/2000/svg" viewBox="0 0 512 512"><defs><style>.cls-1{fill:#fff;}</style></defs><path class="cls-1" d="M186.28,380.14h-13.73v-15.85c0-3.31-2.69-6-6-6s-6,2.69-6,6v15.85h-9.77v-108.42c0-2.7,2.19-4.89,4.89-4.89s4.89,2.19,4.89,4.89v65.75c0,3.31,2.69,6,6,6s6-2.69,6-6v-15.17l.73,.19c5.12,1.31,10.4,1.96,15.68,1.96,4.84,0,9.69-.55,14.41-1.65,4.67-1.09,9.47-1.52,14.27-1.28l8.54,.43c1.66,.08,3.25-.51,4.44-1.64,1.19-1.13,1.87-2.71,1.87-4.35v-43.59c0-3.19-2.49-5.82-5.67-5.99l-7.8-.43c-5.49-.3-11,.11-16.38,1.23l-3.32,.69c-7.92,1.65-16.22,1.39-24.02-.75l-3.73-1.02c-2.32-6.55-8.57-11.27-15.9-11.27-9.31,0-16.89,7.58-16.89,16.89v108.42h-10.87c-3.31,0-6,2.69-6,6s2.69,6,6,6h58.38c3.31,0,6-2.69,6-6s-2.69-6-6-6Zm-11.63-100.81c8.88,2.04,18.2,2.14,27.12,.29l3.32-.69c4.36-.91,8.83-1.25,13.28-1l2.13,.12v31.6l-2.24-.11c-5.92-.3-11.85,.23-17.61,1.58-8,1.87-16.44,1.78-24.39-.25l-1.6-.41v-31.12Z"/><path class="cls-1" d="M384.43,131.4l-7.8-.43c-5.48-.3-10.99,.12-16.38,1.23l-3.32,.69c-7.91,1.65-16.22,1.39-24.02-.74l-3.73-1.02c-2.32-6.55-8.57-11.27-15.9-11.27-9.31,0-16.89,7.58-16.89,16.89v108.42h-10.87c-3.31,0-6,2.69-6,6s2.69,6,6,6h58.38c3.31,0,6-2.69,6-6s-2.69-6-6-6h-13.73v-15.85c0-3.31-2.69-6-6-6s-6,2.69-6,6v15.85h-9.77v-108.42c0-2.7,2.19-4.89,4.89-4.89s4.89,2.19,4.89,4.89v65.75c0,3.31,2.69,6,6,6s6-2.69,6-6v-15.17l.73,.19c5.12,1.31,10.4,1.96,15.68,1.96,4.84,0,9.69-.55,14.41-1.65,4.68-1.09,9.49-1.52,14.28-1.28l8.54,.43c1.64,.09,3.25-.51,4.44-1.64,1.19-1.13,1.87-2.7,1.87-4.35v-43.59c0-3.19-2.49-5.82-5.67-5.99Zm-6.33,43.27l-2.24-.11c-5.92-.3-11.84,.23-17.61,1.58-8,1.87-16.43,1.78-24.39-.25l-1.6-.41v-31.13c8.88,2.04,18.2,2.14,27.11,.29l3.32-.69c4.36-.91,8.83-1.24,13.28-1l2.13,.12v31.6Z"/><path class="cls-1" d="M213.78,333.99s-.07,0-.11,0c-3.26,0-5.94,2.62-6,5.89-.06,3.31,2.58,6.05,5.89,6.11,.62,.01,1.23,.02,1.84,.02,21.34,0,37.77-6.85,46.38-19.4,5.47-7.96,7.21-17.12,8.89-25.97,.25-1.31,.5-2.62,.76-3.92,1.53-7.64,4.13-17.02,10.61-21.85,2.66-1.98,3.21-5.74,1.23-8.4-1.98-2.66-5.74-3.21-8.4-1.23-9.76,7.27-13.25,19.37-15.21,29.11-.27,1.34-.53,2.69-.78,4.05-1.52,7.99-2.95,15.53-7,21.42-8.78,12.78-27.66,14.37-38.11,14.18Z"/><path class="cls-1" d="M307.71,267.13c-14.76,7.78-21.39,24.26-25.93,39.34l-.52,1.74c-3.82,12.75-7.77,25.94-17.21,33.49-8.97,7.17-21.93,8.45-34.46,9.69l-1.29,.13c-15.39,1.53-31.07,4.48-41.49,15.69-2.26,2.43-2.12,6.22,.31,8.48,1.16,1.08,2.62,1.61,4.08,1.61,1.61,0,3.21-.64,4.39-1.91,8.09-8.7,21.73-10.71,33.89-11.92l1.28-.13c13.61-1.34,29.03-2.86,40.78-12.25,12.37-9.89,17.07-25.58,21.22-39.42l.52-1.73c4.01-13.35,9.22-26.48,20.03-32.18,2.93-1.54,4.05-5.17,2.51-8.11-1.55-2.93-5.17-4.06-8.11-2.51Z"/></svg>