<?xml version="1.0" encoding="UTF-8"?><svg id="Layer_1" xmlns="http://www.w3.org/2000/svg" viewBox="0 0 512 512"><defs><style>.cls-1{fill:#fff;}</style></defs><path class="cls-1" d="M337.32,141.93H174.68c-37.49,0-68,30.5-68,68v137.81c0,12.32,10.02,22.34,22.34,22.34h253.95c12.32,0,22.34-10.02,22.34-22.34V209.92c0-37.5-30.5-68-68-68Zm56,68v48.29h-44.44v-103.08c25.35,5.34,44.44,27.88,44.44,54.79Zm-100.1,88.53c0,5.72-4.65,10.37-10.37,10.37h-48.72c-5.72,0-10.37-4.65-10.37-10.37v-65.95c0-5.72,4.65-10.37,10.37-10.37h48.72c5.72,0,10.37,4.65,10.37,10.37v65.95Zm-59.08,22.37h48.72c12.33,0,22.37-10.03,22.37-22.37v-28.24h31.67v87.86H175.14v-86.6h36.63v26.97c0,12.33,10.03,22.37,22.37,22.37Zm71.08-62.6v-25.71c0-12.33-10.03-22.37-22.37-22.37h-48.72c-12.33,0-22.37,10.03-22.37,22.37v26.97h-36.63v-105.55h161.74v104.29h-31.67Zm-142.07-103.09v104.35h-44.45v-49.55c0-26.92,19.1-49.46,44.45-54.8Zm-44.45,192.61v-76.26h44.45v86.6h-34.12c-5.7,0-10.34-4.64-10.34-10.34Zm264.29,10.34h-34.1v-87.86h44.44v77.52c0,5.7-4.64,10.34-10.34,10.34Z"/><path class="cls-1" d="M258.49,239.53c-3.31,0-6,2.69-6,6v35.1c0,3.31,2.69,6,6,6s6-2.69,6-6v-35.1c0-3.31-2.69-6-6-6Z"/></svg>