<svg xmlns="http://www.w3.org/2000/svg" viewBox="0 0 419.27 450.1">
  <defs>
    <style>
      .cls-1 {
        fill: #36752e;
      }

      .cls-2 {
        fill: #1e5b1f;
      }

      .cls-3 {
        fill: #e00f25;
      }

      .cls-4 {
        fill: #ffcd16;
      }

      .cls-5 {
        fill: #dcb317;
      }
    </style>
  </defs>
  <g id="Layer_2" data-name="Layer 2">
    <g id="Layer_1-2" data-name="Layer 1">
      <g>
        <path class="cls-1" d="M42.1,72.77H180.21a0,0,0,0,1,0,0V98.89a112,112,0,0,1-112,112H42.1a0,0,0,0,1,0,0V72.77A0,0,0,0,1,42.1,72.77Z" transform="translate(105.4 321.94) rotate(-140.08)"/>
        <path class="cls-2" d="M402,150.48,296.12,239.11,207.49,133.18l20-16.76a112,112,0,0,1,157.77,14Z"/>
        <path class="cls-1" d="M270.06,261.19v-86.7a62.34,62.34,0,0,0-62.27-62.27h-.62v100c0,98.58.82,0,.62,0-.62-.07-.62,80.19-.62,99.82l36.16.73A48.53,48.53,0,0,1,256.5,346v97.86H222.58v.07h66V312.6A80.38,80.38,0,0,0,270.06,261.19Z"/>
        <path class="cls-2" d="M159.08,443.87V346a48.52,48.52,0,0,1,13.16-33.29l34.93-.73V112.23a62.35,62.35,0,0,0-61.66,62.26v86.7A80.44,80.44,0,0,0,127,312.6V443.94h66v-.07Z"/>
        <path class="cls-1" d="M172.24,312v.73A48.52,48.52,0,0,0,159.08,346v97.86H193V361.31a14.78,14.78,0,0,1,14.18-14.76V312Z"/>
        <path class="cls-2" d="M243.33,312.72V312H207.17v34.56c.21,0,.41,0,.62,0a14.79,14.79,0,0,1,14.79,14.79v82.56H256.5V346A48.53,48.53,0,0,0,243.33,312.72Z"/>
        <circle class="cls-3" cx="16.03" cy="152.91" r="16.03"/>
        <circle class="cls-3" cx="403.24" cy="152.91" r="16.03"/>
        <path d="M306.44,443.94H109.13a3.08,3.08,0,1,0,0,6.16H306.44a3.08,3.08,0,1,0,0-6.16Z"/>
        <g>
          <path class="cls-2" d="M207.17,118.31v11.1h.43a40.06,40.06,0,0,0,37.17-25.12c-9,8.58-22.23,14-37.08,14Z"/>
          <path class="cls-2" d="M207.69,21.62h-.52V32.71h.43a40.05,40.05,0,0,1,40.06,40.06V89.36a39.86,39.86,0,0,1-2.89,14.93c7.31-7,11.73-16.09,11.73-26V61.67C256.5,39.54,234.65,21.62,207.69,21.62Z"/>
          <path class="cls-2" d="M247.66,72.77A40.05,40.05,0,0,0,207.6,32.71h-.43v85.6h.52c14.85,0,28.13-5.44,37.08-14a39.86,39.86,0,0,0,2.89-14.93Z"/>
          <path class="cls-1" d="M207.17,118.31V32.71h-.37a40.05,40.05,0,0,0-40.05,40.06V89.36a40,40,0,0,0,2.88,14.93c9,8.58,22.24,14,37.08,14Z"/>
          <path class="cls-1" d="M206.71,118.31c-14.84,0-28.13-5.44-37.08-14a40.07,40.07,0,0,0,37.17,25.12h.37v-11.1Z"/>
          <path class="cls-1" d="M166.75,72.77A40.05,40.05,0,0,1,206.8,32.71h.37V21.62h-.46c-27,0-48.8,17.92-48.8,40.05V78.26c0,9.94,4.42,19,11.72,26a40,40,0,0,1-2.88-14.93Z"/>
          <path class="cls-3" d="M191.59,118.38c3.1-7.85,4.54-13.12,15.61-13.12,9.9,0,12.51,5.27,15.61,13.12Z"/>
          <path class="cls-4" d="M197.46,118.38c1.93-4.9,2.83-8.19,9.74-8.19,6.18,0,7.81,3.29,9.74,8.19Z"/>
          <path class="cls-2" d="M190.28,99.31a9,9,0,1,0-9,9A9,9,0,0,0,190.28,99.31Z"/>
          <g>
            <rect x="182.76" y="67.82" width="9.87" height="13.56" rx="4"/>
            <rect x="222.22" y="67.82" width="9.87" height="13.56" rx="4"/>
          </g>
          <path d="M207.17,86.32a11.1,11.1,0,0,0-11.1,11.1h22.2A11.1,11.1,0,0,0,207.17,86.32Z"/>
          <path class="cls-1" d="M242.13,99.31a9,9,0,1,0-9,9A9,9,0,0,0,242.13,99.31Z"/>
        </g>
        <path class="cls-3" d="M184.87,0h2.56a0,0,0,0,1,0,0V50.56a0,0,0,0,1,0,0H173.87a0,0,0,0,1,0,0V11a11,11,0,0,1,11-11Z"/>
        <path class="cls-3" d="M225.67,0h13.56a0,0,0,0,1,0,0V50.56a0,0,0,0,1,0,0h-2.56a11,11,0,0,1-11-11V0A0,0,0,0,1,225.67,0Z" transform="translate(464.9 50.56) rotate(180)"/>
        <circle class="cls-3" cx="207.17" cy="50.56" r="4.93"/>
        <circle class="cls-3" cx="207.17" cy="43.16" r="7.4" transform="matrix(0.92, -0.38, 0.38, 0.92, -0.75, 82.57)"/>
        <circle class="cls-3" cx="207.17" cy="35.76" r="7.4" transform="translate(138.69 234.53) rotate(-80.78)"/>
        <circle class="cls-3" cx="207.17" cy="28.36" r="7.4"/>
        <path class="cls-3" d="M213.34,22.2A6.17,6.17,0,1,1,207.17,16,6.16,6.16,0,0,1,213.34,22.2Z"/>
        <rect class="cls-2" x="207.17" y="443.87" width="15.41" height="0.07"/>
        <rect class="cls-2" x="192.99" y="443.87" width="14.18" height="0.07"/>
        <rect class="cls-4" x="172.24" y="215.22" width="71.09" height="16.03"/>
        <rect class="cls-4" x="172.24" y="246.05" width="71.09" height="16.03"/>
        <rect class="cls-4" x="172.24" y="276.88" width="71.09" height="16.03"/>
        <path class="cls-4" d="M207.79,177.64l-.62,0a35.55,35.55,0,0,0-32.56,22.76H241A35.55,35.55,0,0,0,207.79,177.64Z"/>
        <path class="cls-4" d="M207.79,361.31A35.53,35.53,0,0,0,241,338.53H174.61A35.55,35.55,0,0,0,207.79,361.31Z"/>
        <rect class="cls-4" x="172.24" y="307.71" width="71.09" height="16.03"/>
        <path class="cls-5" d="M243.33,213.19A35.37,35.37,0,0,0,241,200.42H174.61a35.55,35.55,0,0,0-2.37,12.77v2h71.09Z"/>
        <rect class="cls-5" x="172.24" y="231.25" width="71.09" height="14.8"/>
        <rect class="cls-5" x="172.24" y="262.08" width="71.09" height="14.8"/>
        <rect class="cls-5" x="172.24" y="292.91" width="71.09" height="14.8"/>
        <path class="cls-5" d="M172.24,325.77a35.53,35.53,0,0,0,2.37,12.76H241a35.32,35.32,0,0,0,2.37-12.76v-2H172.24Z"/>
      </g>
    </g>
  </g>
</svg>
