<svg xmlns="http://www.w3.org/2000/svg" viewBox="0 0 408.21 363.81"><defs><style>.cls-1{fill:#702e02;}.cls-2{fill:#4d1f00;}.cls-3{fill:#ba6b36;}.cls-4{fill:#aeaeae;}.cls-5,.cls-6{fill:#595959;}.cls-6{opacity:0.4;}.cls-7{fill:#d17a3e;}</style></defs><g id="Layer_2" data-name="Layer 2"><g id="Layer_1-2" data-name="Layer 1"><rect class="cls-1" x="15.03" y="175.66" width="370" height="129"/><rect class="cls-2" x="17.03" y="123.13" width="370" height="52.53"/><polygon class="cls-3" points="39.66 362.75 16.25 289.11 390.73 290.3 366.3 363.79 39.66 362.75"/><polygon class="cls-4" points="30.23 359.19 25.54 352.32 380.55 353.45 374.99 360.49 30.23 359.19"/><polygon class="cls-5" points="32.51 362.72 30.19 359.19 375.14 360.29 372.32 363.81 32.51 362.72"/><polygon class="cls-4" points="0.04 308.94 0.13 296.62 406.74 297.92 406.65 310.24 0.04 308.94"/><polygon class="cls-5" points="0 314.76 0.05 308.6 406.66 309.89 406.61 316.06 0 314.76"/><polygon class="cls-4" points="408.17 96.15 408.08 108.47 1.47 107.17 1.56 94.85 408.17 96.15"/><polygon class="cls-5" points="408.21 90.33 408.17 96.49 1.56 95.19 1.6 89.03 408.21 90.33"/><polygon class="cls-4" points="27.35 95.28 25.84 308.68 0.04 308.59 1.55 95.19 27.35 95.28"/><polygon class="cls-4" points="401.58 96.47 400.07 309.87 374.27 309.79 375.78 96.39 401.58 96.47"/><polygon class="cls-5" points="398.66 309.87 400.17 96.47 408.17 96.49 406.66 309.89 398.66 309.87"/><polygon class="cls-6" points="375.78 96.39 400.18 96.47 399.62 176.05 375.22 175.98 375.78 96.39"/><polygon class="cls-4" points="0 314.76 25.54 352.32 42.38 352.37 25.8 314.84 0 314.76"/><polygon class="cls-4" points="406.61 316.06 380.55 353.45 363.71 353.4 380.81 315.97 406.61 316.06"/><polygon class="cls-5" points="391.84 316.01 370.09 353.42 363.71 353.4 380.82 315.97 391.84 316.01"/><polygon class="cls-5" points="14.78 314.8 36 352.35 42.38 352.37 25.8 314.84 14.78 314.8"/><polygon class="cls-4" points="128.29 352.64 113.78 315.12 138.18 315.2 147.55 352.71 128.29 352.64"/><polygon class="cls-5" points="146.96 352.7 135.97 315.19 144.11 315.22 153.86 352.73 146.96 352.7"/><polygon class="cls-4" points="274.41 353.11 284.52 315.67 260.13 315.59 255.15 353.05 274.41 353.11"/><polygon class="cls-5" points="281.26 353.13 292.78 315.69 284.63 315.67 274.35 353.11 281.26 353.13"/><polygon class="cls-5" points="176.93 347.79 169.32 318.04 243.32 318.27 236.04 347.37 176.93 347.79"/><polygon class="cls-4" points="176.93 347.79 169.82 320.31 239.66 320.53 233.17 347.36 176.93 347.79"/><rect class="cls-7" y="21.49" width="408.21" height="114.22"/><rect class="cls-4" y="123.21" width="408.21" height="25"/><rect class="cls-3" x="4.07" y="19.21" width="397" height="59.39"/><rect class="cls-5" y="141.21" width="408.21" height="7"/><rect class="cls-4" x="119.35" width="28" height="131"/><rect class="cls-4" width="28" height="131"/><rect class="cls-5" x="19.1" width="8.9" height="123.21"/><rect class="cls-5" x="139.09" width="8.9" height="123.21"/><rect class="cls-4" x="380.21" width="28" height="131"/><rect class="cls-4" x="260.35" width="28" height="131"/><rect class="cls-5" x="280.8" width="8.9" height="123.21"/><rect class="cls-5" x="378.67" width="8.9" height="123.21"/><polygon class="cls-5" points="189.29 161.64 189.74 98.92 218.92 99.01 218.47 161.74 189.29 161.64"/><polygon class="cls-4" points="189.29 161.64 189.71 103.2 215.5 103.28 215.08 161.73 189.29 161.64"/><ellipse class="cls-5" cx="203.15" cy="139.96" rx="5.49" ry="5.46" transform="translate(-21 243) rotate(-59.25)"/><path class="cls-5" d="M204.1,328.88c-10.6,1.16-8.27,12.84,0,12.84C213.18,341.79,215,330,204.1,328.88Z"/></g></g></svg>