<svg xmlns="http://www.w3.org/2000/svg" viewBox="0 0 265.87 183.2"><defs><style>.cls-1{fill:#ba6b36;}.cls-2{fill:#d17a3e;}.cls-3{fill:#aeaeae;}.cls-4,.cls-5{fill:#595959;}.cls-5{opacity:0.4;}</style></defs><g id="Layer_2" data-name="Layer 2"><g id="Layer_1-2" data-name="Layer 1"><polygon class="cls-1" points="26.15 183.2 10.51 133.94 255.37 133.94 239.73 183.2 26.15 183.2"/><path class="cls-2" d="M0,136.22a12.62,12.62,0,0,0,12.62,12.62H253.25a12.62,12.62,0,0,0,12.62-12.62V62.11H0Z"/><path class="cls-1" d="M253.25,1.74H12.62A12.61,12.61,0,0,0,0,14.35V62.11H265.87V14.35A12.61,12.61,0,0,0,253.25,1.74Z"/><path class="cls-1" d="M243.73,125.43h-222c-6.43,0-11.64,2-11.64,4.52V147h245.3V130C255.37,127.45,250.15,125.43,243.73,125.43Z"/><polygon class="cls-3" points="19.97 180.84 16.87 176.25 249 176.25 245.4 180.97 19.97 180.84"/><polygon class="cls-4" points="21.48 183.2 19.95 180.84 245.49 180.84 243.67 183.2 21.48 183.2"/><rect class="cls-3" y="139.01" width="265.87" height="8.25"/><rect class="cls-4" y="147.03" width="265.87" height="4.13"/><rect class="cls-3" y="3.9" width="265.87" height="8.25" transform="translate(265.87 16.04) rotate(180)"/><rect class="cls-4" width="265.87" height="4.13" transform="translate(265.87 4.13) rotate(180)"/><rect class="cls-3" y="4.13" width="16.87" height="142.9"/><rect class="cls-4" x="15.96" y="4.13" width="5.4" height="142.9"/><rect class="cls-3" x="72.88" y="4.13" width="16.87" height="142.9"/><rect class="cls-4" x="88.83" y="4.13" width="5.4" height="142.9"/><rect class="cls-3" x="170.09" y="4.13" width="16.87" height="142.9"/><rect class="cls-4" x="186.04" y="4.13" width="5.4" height="142.9"/><rect class="cls-3" x="244.69" y="4.13" width="16.87" height="142.9"/><rect class="cls-4" x="260.64" y="4.13" width="5.23" height="142.9"/><rect class="cls-5" y="4.13" width="15.96" height="53.3"/><rect class="cls-5" x="72.88" y="4.13" width="15.96" height="53.3"/><rect class="cls-5" x="170.14" y="4.13" width="15.96" height="53.3"/><rect class="cls-5" x="244.69" y="4.13" width="15.96" height="53.3"/><polygon class="cls-3" points="0 151.15 16.87 176.25 27.88 176.25 16.87 151.15 0 151.15"/><polygon class="cls-3" points="265.87 151.15 249 176.25 237.99 176.25 249 151.15 265.87 151.15"/><polygon class="cls-4" points="256.21 151.15 242.16 176.25 237.99 176.25 249 151.15 256.21 151.15"/><polygon class="cls-4" points="9.66 151.15 23.71 176.25 27.88 176.25 16.87 151.15 9.66 151.15"/><polygon class="cls-3" points="84.06 176.25 74.4 151.15 90.35 151.15 96.65 176.25 84.06 176.25"/><polygon class="cls-4" points="96.26 176.25 88.9 151.15 94.23 151.15 100.78 176.25 96.26 176.25"/><polygon class="cls-3" points="179.6 176.25 186.04 151.15 170.09 151.15 167.01 176.25 179.6 176.25"/><polygon class="cls-4" points="184.08 176.25 191.44 151.15 186.11 151.15 179.56 176.25 184.08 176.25"/><polygon class="cls-4" points="115.84 172.9 110.72 152.99 159.11 152.99 154.49 172.49 115.84 172.9"/><polygon class="cls-3" points="115.84 172.9 111.06 154.51 156.73 154.51 152.61 172.49 115.84 172.9"/><rect class="cls-4" x="126.78" y="132.58" width="19.08" height="42.01"/><rect class="cls-3" x="126.78" y="135.44" width="16.86" height="39.14"/><ellipse class="cls-4" cx="135.74" cy="160.03" rx="3.58" ry="3.67"/></g></g></svg>