<svg xmlns="http://www.w3.org/2000/svg" xmlns:xlink="http://www.w3.org/1999/xlink" viewBox="0 0 214.31 213.45">
  <defs>
    <style>
      .cls-1, .cls-10, .cls-12, .cls-5, .cls-6, .cls-7, .cls-8, .cls-9 {
        isolation: isolate;
      }

      .cls-1 {
        fill: url(#linear-gradient);
      }

      .cls-2 {
        fill: #ffa600;
      }

      .cls-3 {
        fill: #e48200;
      }

      .cls-4 {
        fill: #9e3902;
      }

      .cls-5 {
        fill: #ed9200;
      }

      .cls-6 {
        fill: url(#linear-gradient-2);
      }

      .cls-7 {
        fill: url(#linear-gradient-3);
      }

      .cls-8 {
        fill: url(#linear-gradient-4);
      }

      .cls-9 {
        fill: url(#linear-gradient-5);
      }

      .cls-10 {
        fill: url(#linear-gradient-6);
      }

      .cls-11 {
        fill: #fff;
      }

      .cls-12 {
        fill: #fede38;
      }
    </style>
    <linearGradient id="linear-gradient" y1="111.55" x2="193.81" y2="111.55" gradientUnits="userSpaceOnUse">
      <stop offset="0" stop-color="#ffd221"/>
      <stop offset="0.16" stop-color="#ffdb48"/>
      <stop offset="0.33" stop-color="#ffd118"/>
      <stop offset="0.51" stop-color="#ffdb48"/>
      <stop offset="0.7" stop-color="#ffd10e"/>
      <stop offset="0.87" stop-color="#ffdb48"/>
      <stop offset="1" stop-color="#ffd211"/>
    </linearGradient>
    <linearGradient id="linear-gradient-2" x1="128.71" y1="8.67" x2="135.54" y2="26.98" gradientUnits="userSpaceOnUse">
      <stop offset="0" stop-color="#ed9200"/>
      <stop offset="0.46" stop-color="#feb709"/>
      <stop offset="1" stop-color="#ed9200"/>
    </linearGradient>
    <linearGradient id="linear-gradient-3" x1="43.41" y1="-27.14" x2="101.96" y2="17.77" gradientUnits="userSpaceOnUse">
      <stop offset="0" stop-color="#f2a418"/>
      <stop offset="0.81" stop-color="#ffb705"/>
      <stop offset="1" stop-color="#ed9200"/>
    </linearGradient>
    <linearGradient id="linear-gradient-4" x1="151.63" y1="206.75" x2="192.41" y2="130.46" gradientUnits="userSpaceOnUse">
      <stop offset="0" stop-color="#e98600"/>
      <stop offset="0.51" stop-color="#d35c00"/>
      <stop offset="1" stop-color="#e98600"/>
    </linearGradient>
    <linearGradient id="linear-gradient-5" x1="203.42" y1="132.93" x2="200.37" y2="123.27" gradientUnits="userSpaceOnUse">
      <stop offset="0" stop-color="#a84e00"/>
      <stop offset="0.52" stop-color="#d57100"/>
      <stop offset="1" stop-color="#a84e00"/>
    </linearGradient>
    <linearGradient id="linear-gradient-6" x1="200.04" y1="94.2" x2="190.19" y2="58.7" xlink:href="#linear-gradient-3"/>
  </defs>
  <g id="Layer_2" data-name="Layer 2">
    <g id="Layer_1-2" data-name="Layer 1">
      <g>
        <path class="cls-1" d="M51.77,16.19A183.32,183.32,0,0,0,26.59,32.72c-4.53,3.56-9.35,7.11-12.63,12A36.43,36.43,0,0,0,7.8,61.38C5.92,73.57,4,85.76,2.3,97.82c-.82,5.16-1.65,10.32-2,15.36C-.14,118.8,0,124.44.06,129.92c.29,3.05.29,6.08.88,9.14,1.64,8.16,6.84,15,11.89,21.74,9.59,12.25,19.16,24.79,31.33,34.7a43.69,43.69,0,0,0,14.26,8.56c14.89,4.68,30.9,7,46.51,8.5a14.3,14.3,0,0,0,2.47,0c2.22-.92,3.11-4.2,5.43-4.1,1.58.21,2.66,2,3.92,3.06,5.27,5.13,15.73-1.06,20.52-4a65.54,65.54,0,0,0,10.1-7.8c5.45-4.67,11-9.49,14.83-15.68,1-1.69,1.76-3.53,2.87-5.36,7-12.12,19.6-21.4,23.58-35,.86-3,1.32-6.44-.15-9.25-.37-1.31-1.48-2.51-1.26-4.09.29-3,3.52-3.75,5.36-5.69a7.46,7.46,0,0,0,1.18-3.56,55.52,55.52,0,0,0-.25-6.94l-.29-3c-.13-.44-.1-1-.21-1.74a31.19,31.19,0,0,0-1.22-5c-.5-1.76-1.13-3.66-1.77-5.57-.21-1.74-.13-3.47-.78-5.08a36.78,36.78,0,0,1-2.79-8.5,33.39,33.39,0,0,0-3.06-9.09c-.13-.15-.12-.43-.4-.73-1-2.65-1.48-5.56-2.65-8.35-2-4.56-2.33-9.2-5.46-13.52a48.24,48.24,0,0,0-7.47-7.83c-2-1.82-4-3.78-6.14-5.46-5-3.69-10.74-6.24-16.43-8.8-4.83-2.22-9.81-4.32-14.65-6.55-9.52-4.3-18.91-8.46-28.93-11.49a78.37,78.37,0,0,0-23.5-3.76A52.1,52.1,0,0,0,51.77,16.19Z"/>
        <path class="cls-2" d="M167.1,109.88a52.88,52.88,0,0,1,1.26,8.84,16.13,16.13,0,0,1-1.59,7.27,92,92,0,0,1-9,16.3c-2.16,3.12-4.51,6.11-6.85,9.08l-9.1,11.56c-1,1.29-2,2.59-3.14,3.8a66,66,0,0,1-5.23,4.94c-2.42,2.13-5,4.16-7.29,6.42a10,10,0,0,1-2.08,1.93c-1.07.58-2.66.34-3.66,1a58.66,58.66,0,0,1-7.75,2.47c-10.72,2.33-21.86,1-32.5-.41l-1.87-.25c-6.17-.81-12.37-1.74-18.21-3.91-1.88-.7-4.11-1.12-5.68-2.4A79.25,79.25,0,0,1,48,170.08q-12.61-13-23.83-26.85a19.15,19.15,0,0,1-2.17-3.1c-1.31-2.49-1.54-5.43-1.73-8.27a179.46,179.46,0,0,1-.63-19,179.16,179.16,0,0,1,2.75-22.33c.54-3.23,1.07-6.47,1.61-9.7.44-2.64.53-5.42,1.6-7.92a30.13,30.13,0,0,1,2-4.47,5.93,5.93,0,0,1,1.21-1.24c5-3.89,9.35-8.88,14.77-12.21,2.41-1.49,5.05-2.6,7.39-4.25s4.44-4,4.92-6.86a1.68,1.68,0,0,1,.48-1.16c.41-.31,1-.11,1.43,0,2.88.91,6-.36,8.92-1.51q5.17-2.06,10.53-3.7c3.79-1.16,7.71-2.17,11.64-2a37.86,37.86,0,0,1,6.75,1.18c11,2.61,22.12,5.42,32.38,10.49,10,5.32,19.92,11.52,28,19.83,2.92,3,3.64,7,4.51,11,2.29,10.55,4.59,21.15,6.62,31.83"/>
        <path class="cls-3" d="M88.82,35.61c-3.93-.21-7.85.8-11.64,2q-5.36,1.63-10.53,3.7c-2.89,1.15-6,2.42-8.92,1.52-.47-.15-1-.35-1.43,0a1.71,1.71,0,0,0-.48,1.17c-.48,2.84-2.58,5.2-4.92,6.85s-5,2.76-7.39,4.25c-5.42,3.33-9.78,8.32-14.77,12.21a5.93,5.93,0,0,0-1.21,1.24,31.21,31.21,0,0,0-2,4.47c-1.07,2.51-1.16,5.28-1.6,7.92-.54,3.23-1.07,6.47-1.61,9.7a179.16,179.16,0,0,0-2.75,22.33,179.65,179.65,0,0,0,.63,19c.2,2.83.42,5.77,1.73,8.27a19.51,19.51,0,0,0,2.17,3.09Q35.35,157.1,48,170.08a79.25,79.25,0,0,0,6.47,6.49c1.57,1.28,3.8,1.7,5.68,2.4,5.84,2.17,12,3.1,18.22,3.92l1.86.24c10.64,1.38,21.78,2.74,32.5.41a58.66,58.66,0,0,0,7.75-2.47c.93-.66,2.35-.5,3.41-.94l-4.18-.52-1.94-.24c-6.4-.82-12.83-1.76-18.9-4-1.94-.71-4.26-1.13-5.9-2.43a83.56,83.56,0,0,1-6.72-6.59Q73.1,153.22,61.44,139.1A20,20,0,0,1,59.18,136c-1.36-2.53-1.6-5.52-1.81-8.41a177.86,177.86,0,0,1-.7-19.3,177.51,177.51,0,0,1,2.78-22.72c.55-3.3,1.09-6.59,1.64-9.88.45-2.69.54-5.51,1.64-8.06a31.46,31.46,0,0,1,2-4.56A6,6,0,0,1,66,61.77c5.15-4,9.67-9.06,15.27-12.47,1.17-.71,2.38-1.33,3.59-2s2.39-1.45,3.62-2.06a30.57,30.57,0,0,1,7.59-2.55c.3-.06.6-.12.9-.16,5.27-.87,10.62-.29,16-.22.31,0,.7-.05.79-.35s-.31-.57-.64-.67q-4.29-1.32-8.63-2.41c-1.49-.38-3-.69-4.52-1l-2.25-.49c-.37-.09-.76-.16-1.12-.28a8.68,8.68,0,0,0-.84-.34c-1.08-.25-2.18-.46-3.24-.69a21.7,21.7,0,0,0-3.68-.49"/>
        <path class="cls-4" d="M94.46,182.79l-1.89-.24c-6.26-.82-12.54-1.76-18.46-3.94-1.9-.71-4.16-1.12-5.76-2.42a79.13,79.13,0,0,1-6.56-6.52q-12.81-13-24.17-27a18.85,18.85,0,0,1-2.21-3.11c-1.33-2.51-1.56-5.47-1.76-8.32a179.18,179.18,0,0,1-.65-19.1,177.43,177.43,0,0,1,2.76-22.47l1.62-9.77c.44-2.66.54-5.45,1.62-8a30.52,30.52,0,0,1,2-4.5,6.33,6.33,0,0,1,1.23-1.25c5-3.91,9.47-8.94,14.95-12.3C67.84,47.3,79.07,40,91.25,36.27l.84-.25a24,24,0,0,0-3.27-.41c-3.93-.21-7.85.8-11.64,2q-5.36,1.63-10.53,3.7c-2.89,1.15-6,2.42-8.92,1.51-.47-.14-1-.34-1.43,0a1.71,1.71,0,0,0-.48,1.17c-.48,2.84-2.58,5.2-4.92,6.85s-5,2.76-7.39,4.25c-5.42,3.33-9.78,8.32-14.77,12.21a5.93,5.93,0,0,0-1.21,1.24,31.21,31.21,0,0,0-2,4.47c-1.07,2.51-1.16,5.28-1.6,7.92-.54,3.23-1.07,6.47-1.61,9.7a179.16,179.16,0,0,0-2.75,22.33,179.65,179.65,0,0,0,.63,19c.19,2.83.42,5.77,1.73,8.26a19.15,19.15,0,0,0,2.17,3.1Q35.35,157.1,48,170.08a79.25,79.25,0,0,0,6.47,6.49c1.57,1.28,3.8,1.7,5.68,2.4,5.84,2.17,12,3.1,18.22,3.92l1.86.24c9.25,1.2,18.88,2.38,28.29,1.14-4.72-.3-9.42-.89-14-1.48"/>
        <path class="cls-5" d="M134.65,26.85c3.44,1.51,6.87,3.07,10.32,4.61,5.65,2.48,11.37,5,16.28,8.76a80.33,80.33,0,0,1,6.28,5.43,53.88,53.88,0,0,1,7.41,7.92,20.1,20.1,0,0,1,2.53,4.82l23.12-9a102.39,102.39,0,0,0-8.2-10.07c-1.79-1.89-3.64-3.76-5.59-5.49-1.13-1.07-2.39-3.1-3.46-3.56-9.12-4.14-18.21-8.21-27.16-12.26Z"/>
        <path class="cls-6" d="M107.26,15.38c7.75,2.75,15.33,6.1,22.93,9.49l4.47,2,21.51-8.78c-4.32-1.95-8.62-3.86-12.89-5.79-4.7-2.11-9.37-4.22-14.15-6Z"/>
        <path class="cls-7" d="M99.28,0c-7,.26-14.14,2.7-20.74,5.14S65.46,10,59,12.38a14.21,14.21,0,0,0-3.64,1.95c14.9-6.89,30.4-5.73,46.07-.91,2,.59,3.92,1.3,5.88,1.94l21.85-9.11-2.69-1c-1.38-.51-2.76-.93-4.13-1.35s-2.83-.81-4.26-1.27c-2.25-.59-4.52-.53-6.71-1.08a45.33,45.33,0,0,0-11-1.5C99.93,0,99.62,0,99.28,0Z"/>
        <path class="cls-8" d="M189.44,139.08a15.51,15.51,0,0,1-.79,4.42c-3.93,13.73-16.59,22.93-23.58,35.18-.94,1.72-1.86,3.54-2.86,5.23-3.71,6.24-9.28,11.09-14.77,15.76a69,69,0,0,1-10.11,7.8c-2.73,1.61-7.21,4.29-11.59,5.39a31.2,31.2,0,0,0,4.23-.11c22.78-1.85,40.87-18.91,55.73-36.39,11.35-13.44,22.23-28.29,26.55-45.27Z"/>
        <path class="cls-9" d="M192.53,124.63c-1.73,1.92-5.07,2.7-5.32,5.69-.12,1.44.85,2.73,1.44,4.07a10.21,10.21,0,0,1,.8,4.69l22.79-8c.52-2,1-4,1.28-6.12a73.26,73.26,0,0,0,.75-8.09Z"/>
        <path class="cls-10" d="M177.47,58.39c1.05,2.81,1.7,5.72,2.87,8.64s1.61,5.69,2.76,8.39l.32.75c1.24,2.88,2.68,5.91,3.06,9.08.41,2.87,1.74,5.64,2.76,8.39.69,1.78.56,3.4.94,5.16a54.74,54.74,0,0,0,1.65,5.6,46.27,46.27,0,0,1,1.22,5,17.3,17.3,0,0,1,.17,1.78c.12,1,.27,2,.33,3a36.62,36.62,0,0,1,.24,6.87,5.54,5.54,0,0,1-1.2,3.47l0,.09,21.72-7.75c.3-9.25-1-18.56-2.22-27.75C210.3,76.82,209.05,62,202,51.44c-.45-.7-.93-1.31-1.38-2Z"/>
        <path class="cls-11" d="M186.72,148.64c.57-1.92,1.09-3.84,1.47-5.77.18-1,.35-1.94.47-2.91a12.13,12.13,0,0,0,.17-2.73,4.59,4.59,0,0,0-.5-1.15c-.24-.47-.49-.93-.7-1.4a15.49,15.49,0,0,1-1-3,7.12,7.12,0,0,1-.19-1.69,4.16,4.16,0,0,1,.46-1.94,3.18,3.18,0,0,1,.7-.84c.21-.19.42-.36.63-.52l1.22-.89a13.91,13.91,0,0,0,2.13-1.72,5.18,5.18,0,0,0,1.11-2.19,34.7,34.7,0,0,0,.29-5.74,41.38,41.38,0,0,0-.32-5.85c-.22-2-.51-3.93-.84-5.9a45.36,45.36,0,0,1,1.77,5.74,32.21,32.21,0,0,1,.94,6,26.78,26.78,0,0,1,.1,6.17,6.62,6.62,0,0,1-1.47,3.12,14.47,14.47,0,0,1-2.46,2.08l-1.17.88-.53.42a1,1,0,0,0-.26.28,3.79,3.79,0,0,0-.13,2.22,15.88,15.88,0,0,0,.67,2.72,11.86,11.86,0,0,0,.49,1.34,5.34,5.34,0,0,1,.56,1.63,10.15,10.15,0,0,1-.4,3.18c-.24,1-.49,2-.82,2.92a36.53,36.53,0,0,1-2.37,5.53"/>
        <path class="cls-11" d="M24.14,143.22a14.65,14.65,0,0,1-2.9-4,18.35,18.35,0,0,1-1.31-4.81c-.42-3.28-.72-6.51-1-9.79s-.4-6.55-.4-9.85.26-6.6.61-9.87c.76-6.55,2-13,3.19-19.39l.93-4.81c.32-1.56.52-3.2.89-4.83a17.13,17.13,0,0,1,.76-2.4l1-2.25A22.77,22.77,0,0,1,27,69a5.23,5.23,0,0,1,.75-1,8.75,8.75,0,0,1,1-.77c-1.32,1-1.74,2.67-2.27,4.2l-.78,2.31a16.62,16.62,0,0,0-.49,2.33c-.24,1.58-.32,3.2-.53,4.86L24,85.79c-.44,3.23-1,6.46-1.42,9.69s-.95,6.43-1.29,9.66a125.48,125.48,0,0,0-.68,19.4c.11,3.24.19,6.53.35,9.76a17.42,17.42,0,0,0,.81,4.71,16.41,16.41,0,0,0,2.37,4.21"/>
        <path class="cls-4" d="M103.68,143l28.52,5.46,22.94-57.54-32.67,18.47L112.09,89.55,103,57.23l-33.34,45L49.48,76.08l-3.76,3.51,7.78,54.74,22.57,4.77,3-2.25,5.66,5.85Z"/>
        <polygon class="cls-12" points="83.42 79.6 66.88 105.93 45.74 79.67 47.39 104.81 53.18 132.1 74.67 135.98 79.38 132.24 85.31 138.69 104.69 139.1 128.64 144.78 149.45 94.12 117.25 110.2 107.75 92.47 99.57 61.7 83.42 79.6"/>
        <path class="cls-11" d="M49.81,116.06c-.3-.91-.56-1.84-.83-2.76s-.49-1.85-.74-2.77q-.75-2.77-1.38-5.57v-.08q-.32-4.12-.48-8.25c-.08-2.75-.16-5.51-.08-8.28.43,2.74.71,5.48,1,8.22s.45,5.49.6,8.24v-.07c.38,1.87.74,3.75,1.06,5.64.16.94.35,1.88.48,2.83s.29,1.89.4,2.85"/>
        <path class="cls-11" d="M74.67,136.05a8.78,8.78,0,0,1,4.68-3.77,7.7,7.7,0,0,1-2,2.3,7.92,7.92,0,0,1-2.68,1.47"/>
      </g>
    </g>
  </g>
</svg>
